<svg width="220" height="234" viewBox="0 0 220 234" fill="none" xmlns="http://www.w3.org/2000/svg">
<g clip-path="url(#clip0_36757_64467)">
<path d="M131.736 208.315C124.65 210.918 114.563 216.871 110.406 219.522C106.128 216.57 96.0896 210.34 90.1606 209.038C84.2316 207.737 77.206 202.47 74.4344 200C72.0845 201.988 69.5538 204.7 69.7346 209.038C69.8792 212.509 73.8921 213.858 75.8804 214.099C73.3498 215.666 67.3124 221.221 63.4079 230.91C58.4912 244.359 67.6257 251.336 72.8075 253.144C72.5063 254.717 73.0244 258.509 77.5073 261.097C83.1109 264.333 102.091 263.989 110.406 263.989C118.721 263.989 137.52 263.086 142.22 261.097C145.98 259.507 147.161 255.132 147.281 253.144C158.669 247.359 159.211 240.671 156.5 230.91C154.331 223.101 147.281 216.449 144.027 214.099C145.654 213.798 149.053 212.364 149.631 209.038C150.643 203.254 147.161 200.603 145.293 200C143.726 201.687 138.822 205.712 131.736 208.315Z" fill="#8D0BFF"/>
<path d="M78.4109 222.414C74.0727 233.839 72.024 247.179 71.542 252.421C72.4096 253.578 72.8676 253.505 72.9881 253.325C73.2773 247.54 76.7238 230.308 78.4109 222.414Z" fill="#7800E0"/>
<path d="M141.497 222.414C145.835 233.839 147.884 247.179 148.366 252.421C147.498 253.578 147.04 253.505 146.92 253.325C146.63 247.54 143.184 230.308 141.497 222.414Z" fill="#7800E0"/>
</g>
<defs>
<clipPath id="clip0_36757_64467">
<path d="M0 16C0 7.16344 7.16344 0 16 0H204C212.837 0 220 7.16344 220 16V218C220 226.837 212.837 234 204 234H16C7.16344 234 0 226.837 0 218V16Z" fill="white"/>
</clipPath>
</defs>
</svg>
