<svg width="220" height="234" viewBox="0 0 220 234" fill="none" xmlns="http://www.w3.org/2000/svg">
<g clip-path="url(#clip0_36757_64541)">
<path d="M114.465 221.175H107.029L100.906 226.762L105.717 232.78L101.78 251.261L110.966 267.594L119.714 251.261L115.34 232.78L119.714 226.762L114.465 221.175Z" fill="black"/>
<path d="M107.467 221.175L81.2144 209L94.3443 233.209L107.467 221.175Z" fill="#E0E4E8"/>
<path d="M113.154 221.175L139.398 209.57L128.026 234.069L113.154 221.175Z" fill="#E0E4E8"/>
<path d="M52.3525 245.674C55.5019 222.98 72.9036 211.579 81.2145 209L111.841 264.585L138.961 209.57C169.405 219.198 171.767 255.703 169.143 272.752C163.194 275.158 157.624 275.187 155.583 274.901C155.583 281.434 152.083 289.657 150.334 292.952C142.985 296.047 121.027 295.101 110.966 294.242C99.1561 295.531 75.9731 294.242 71.5989 292.952C68.0996 291.921 65.7667 280.488 65.0377 274.901L52.3525 272.752C51.3319 269.456 49.903 259.428 52.3525 245.674Z" fill="#363642"/>
</g>
<defs>
<clipPath id="clip0_36757_64541">
<path d="M0 16C0 7.16344 7.16344 0 16 0H204C212.837 0 220 7.16344 220 16V218C220 226.837 212.837 234 204 234H16C7.16344 234 0 226.837 0 218V16Z" fill="white"/>
</clipPath>
</defs>
</svg>
