<svg width="220" height="234" viewBox="0 0 220 234" fill="none" xmlns="http://www.w3.org/2000/svg">
<g clip-path="url(#clip0_36757_64481)">
<path d="M130.481 210.959C129.722 211.022 129.48 211.67 129.453 211.986C129.453 211.986 128.663 218.258 128.439 219.522C128.313 220.233 127.773 220.318 127.557 220.318C126.214 220.318 94.2875 220.391 93.4657 220.391C92.644 220.391 92.4385 219.812 92.4385 219.522C92.1488 217.046 91.5377 213.804 91.4113 212.539C91.2849 211.275 90.3577 210.959 89.91 210.959C88.4877 210.854 85.3428 210.643 84.1417 210.643C82.9407 210.643 82.7458 211.907 82.7985 212.539L84.5368 222.683C80.3489 235.404 79.5587 244.491 79.1636 250.339C78.7686 256.186 79.1636 264.325 79.5587 266.3C79.8748 267.88 81.0601 268.276 81.6132 268.276H140.2C141.227 268.276 142.412 264.72 141.859 250.339C141.306 235.958 136.328 223.631 136.328 222.683C136.328 221.735 137.987 214.357 138.066 212.539C138.13 211.085 136.934 210.669 136.328 210.643C134.695 210.722 131.239 210.896 130.481 210.959Z" fill="#4C85C6"/>
<circle cx="89.7372" cy="224.881" r="2.84461" fill="#323F54"/>
<circle cx="131.206" cy="224.881" r="2.84461" fill="#323F54"/>
<path d="M127.602 228.869H94.1882V240.265C94.1882 242.974 95.8372 246.082 111.557 246.082C127.277 246.082 127.602 242.655 127.602 240.265V228.869Z" stroke="#3066A2" stroke-width="1.4762" stroke-linejoin="round"/>
</g>
<defs>
<clipPath id="clip0_36757_64481">
<path d="M0 16C0 7.16344 7.16344 0 16 0H204C212.837 0 220 7.16344 220 16V218C220 226.837 212.837 234 204 234H16C7.16344 234 0 226.837 0 218V16Z" fill="white"/>
</clipPath>
</defs>
</svg>
