<svg width="220" height="234" viewBox="0 0 220 234" fill="none" xmlns="http://www.w3.org/2000/svg">
<g clip-path="url(#clip0_36757_64235)">
<path d="M112.742 57C101.95 59.681 106.631 70.9128 110.321 76.1935C110.321 74.3656 115.509 68.2724 115.855 65.2258C116.132 60.1075 113.895 57.6093 112.742 57Z" fill="#507F00"/>
<path d="M72.9624 119.76C70.4718 121.953 61.7779 130.829 57.7422 134.993C53.5913 140.172 83.6856 142 111.013 142C138.34 142 167.396 138.953 164.283 134.688C159.025 129.082 151.254 122.4 148.025 119.76C140.761 118.237 123.189 115.19 111.013 115.19C95.7925 115.19 76.0756 117.018 72.9624 119.76Z" fill="#FE7601"/>
<path d="M102.711 81.9821C76.4213 84.1757 71.6938 108.284 72.6163 120.065C82.8552 123.233 127.386 121.385 148.371 120.065C148.371 96.9104 135.572 79.2402 102.711 81.9821Z" fill="#FE7601"/>
<path d="M109.975 75.5842C104.717 75.5842 103.172 80.0526 103.056 82.2867C108.085 82.8961 118.03 83.7491 117.585 82.2867C117.029 80.4588 116.547 75.5842 109.975 75.5842Z" fill="#FE7601"/>
</g>
<defs>
<clipPath id="clip0_36757_64235">
<rect width="173.493" height="85" fill="white" transform="translate(24.7534 57)"/>
</clipPath>
</defs>
</svg>
