<svg width="220" height="234" viewBox="0 0 220 234" fill="none" xmlns="http://www.w3.org/2000/svg">
<path d="M38.4985 136.323C40.4138 133.145 56.4351 125.555 64.8936 122.434L121.385 145.49C119.917 146.991 113.742 151.43 100.786 157.178C84.5921 164.363 75.1039 165.655 64.915 162.619C54.7261 159.583 58.2496 149.888 50.2054 148.056C40.8282 145.921 35.6433 141.061 38.4985 136.323Z" fill="#FE684D"/>
<path d="M138.025 91.237C127.275 77.7994 106.671 78.0794 97.7124 79.8991L106.111 118.952L117.029 138.688L151.043 131.97C151.183 123.991 148.775 104.675 138.025 91.237Z" fill="#7FC6B4"/>
<path d="M99.3918 79.8987C78.5636 78.219 65.7979 110.553 62.0186 126.93C64.5381 131.689 75.96 142.132 101.491 145.827C127.023 149.522 145.164 139.528 151.042 134.069V128.19C142.644 134.909 128.227 136.589 122.068 136.589C123.747 118.112 125.427 81.9983 99.3918 79.8987Z" fill="#69A999"/>
<path d="M104.011 113.073C96.9562 113.745 81.755 107.474 75.0362 104.254C71.0049 109.293 68.8773 117.832 68.3174 121.471C77.9756 132.389 93.9328 133.649 98.132 133.649C101.491 133.649 103.451 119.932 104.011 113.073Z" fill="#B0D6E1"/>
</svg>
