<svg width="220" height="234" viewBox="0 0 220 234" fill="none" xmlns="http://www.w3.org/2000/svg">
<path d="M121.348 165.501C123.164 165.501 130.964 165.635 131.906 165.837C132.658 165.998 133.071 166.397 133.183 166.576C133.16 167.114 133.129 168.231 133.183 168.393C133.25 168.595 133.048 169.401 132.51 169.603C131.972 169.804 131.435 170.141 130.964 172.226C130.292 175.588 129.215 177.807 127.467 179.689C125.719 181.572 118.321 181.774 115.295 179.958C112.27 178.142 111.059 173.437 110.79 172.226C110.521 171.015 109.782 170.679 108.907 170.679C108.033 170.679 107.428 171.149 107.226 171.956C107.024 172.763 106.218 176.125 104.671 178.21C103.125 180.295 101.443 181.169 96.8704 181.169C92.2978 181.169 91.2892 180.362 89.8098 179.151C88.3304 177.941 87.2543 173.772 86.8508 171.889C86.4474 170.006 85.9766 169.602 85.4387 169.535C85.0086 169.481 84.8558 169.065 84.8333 168.863V166.711C84.8334 165.85 86.4022 165.725 87.1868 165.77C88.8679 165.702 93.3738 165.568 97.9465 165.568C103.662 165.568 105.209 166.779 106.419 167.384C107.63 167.989 107.899 168.056 108.907 168.056C109.916 168.056 110.723 167.719 112.538 166.576C114.354 165.433 119.532 165.501 121.348 165.501ZM104.268 168.863C102.318 167.586 94.7857 167.383 91.5579 167.72C88.9757 167.989 88.5092 169.849 88.5989 170.746C88.711 172.226 89.2853 175.668 90.6838 177.604C92.4322 180.025 97.677 180.026 100.569 179.286C103.46 178.546 104.805 173.235 105.007 172.158C105.209 171.082 105.612 169.805 104.268 168.863ZM128.677 168.526C127.868 167.72 121.347 167.182 117.044 167.854C113.601 168.392 112.741 169.603 112.74 170.141C112.74 172.427 113.547 174.713 114.421 176.327C115.295 177.941 116.103 179.555 120.877 179.689C125.651 179.824 126.996 178.613 128.274 174.915C129.551 171.217 129.484 169.333 128.677 168.526Z" fill="black"/>
</svg>
