<svg width="220" height="234" viewBox="0 0 220 234" fill="none" xmlns="http://www.w3.org/2000/svg">
<path d="M149.549 178.845L161.063 163.239L161.517 169.688L162.426 182.585L158.134 181.338L149.549 178.845Z" fill="#F9EBC8"/>
<path d="M161.063 163.239L161.517 169.687L161.718 172.535L155.53 170.738L161.063 163.239Z" fill="#5B5C6E"/>
<path d="M162.426 182.585L158.134 181.338L161.063 163.239L162.426 182.585Z" fill="#F5DCB4"/>
<path d="M161.063 163.239L161.718 172.535L159.655 171.936L161.063 163.239Z" fill="#454754"/>
<rect x="152.944" y="215.238" width="13.4092" height="34.0018" transform="rotate(-163.807 152.944 215.238)" fill="#FFDC64"/>
<rect x="151.742" y="219.377" width="13.4092" height="4.31009" transform="rotate(-163.807 151.742 219.377)" fill="#C7CFE2"/>
<rect x="152.944" y="215.238" width="6.70458" height="34.0018" transform="rotate(-163.807 152.944 215.238)" fill="#FFC341"/>
<rect x="151.742" y="219.377" width="3.35229" height="4.31009" transform="rotate(-163.807 151.742 219.377)" fill="#AFB9D2"/>
<g clip-path="url(#clip0_36802_3728)">
<rect x="149.605" y="226.735" width="13.4092" height="7.66238" transform="rotate(-163.807 149.605 226.735)" fill="#FF6891"/>
<rect x="149.605" y="226.735" width="3.35229" height="7.66238" transform="rotate(-163.807 149.605 226.735)" fill="#FF6891"/>
<path d="M142.706 224.732C144.738 225.322 146.863 224.153 147.454 222.121L148.522 218.442L151.742 219.377L150.673 223.056C150.083 225.088 147.958 226.257 145.926 225.667L142.706 224.732Z" fill="#FF4F7D"/>
</g>
<defs>
<clipPath id="clip0_36802_3728">
<path d="M150.673 223.056C150.083 225.088 147.958 226.257 145.926 225.667L140.407 224.064C138.375 223.474 137.206 221.349 137.796 219.317L138.864 215.637L151.742 219.377L150.673 223.056Z" fill="white"/>
</clipPath>
</defs>
</svg>
