<svg width="220" height="234" viewBox="0 0 220 234" fill="none" xmlns="http://www.w3.org/2000/svg">
<g clip-path="url(#clip0_36757_64374)">
<path d="M171.4 185.159C164.118 186.053 161.979 191.706 161.819 194.42C162.138 197.135 168.366 198.732 171.4 198.732C174.434 198.732 177.148 197.454 179.224 196.336C181.3 195.219 182.578 194.42 184.813 193.462C187.049 192.504 187.687 192.983 187.687 192.504C187.528 191.386 180.502 184.041 171.4 185.159Z" fill="#336938"/>
<path d="M179.544 216.936C179.544 226.372 171.999 234.022 162.298 234.022C152.597 234.022 144.733 227.954 144.733 216.936C144.733 207.499 153.356 200.009 162.298 200.009C171.999 200.009 179.544 207.499 179.544 216.936Z" fill="#F9991A"/>
<path d="M168.526 191.067C164.182 191.833 160.222 194.74 159.903 195.857V198.412C161.979 193.462 168.526 191.227 173.955 190.748C178.298 190.364 180.662 190.588 181.3 190.748C180.981 189.789 173.955 190.109 168.526 191.067Z" fill="#2F6031"/>
<path d="M151.503 187.629C156.898 191.279 156.256 196.747 155.261 199.025C153.886 201.111 148.296 199.914 145.894 198.697C143.492 197.48 141.871 195.349 140.69 193.605C139.508 191.86 138.827 190.697 137.453 189.019C136.079 187.34 135.376 187.475 135.574 187.084C136.162 186.237 144.76 183.065 151.503 187.629Z" fill="#336938"/>
<path d="M142.018 188.193C142.087 187.937 142.473 188.086 142.657 188.193C144.892 188.991 148.086 190.652 150.641 192.823C153.196 194.995 156.496 199.37 157.827 201.287L157.188 203.522C156.656 201.979 154.793 198.029 151.599 194.58C147.607 190.268 142.817 188.831 142.497 188.672C142.178 188.512 141.933 188.512 142.018 188.193Z" fill="#2F6031"/>
<path d="M156.39 204.321C156.134 203.682 156.709 203.309 157.029 203.203C157.241 202.724 157.699 200.903 157.827 197.454C157.987 193.143 156.709 190.588 156.55 189.789C156.39 188.991 157.348 188.831 157.827 188.672C158.306 188.512 158.785 188.352 159.104 189.151C160.382 193.877 159.903 200.488 159.424 202.724C160.063 202.724 160.701 203.522 160.063 204.161C159.424 204.8 156.709 205.119 156.39 204.321Z" fill="#57390E"/>
</g>
<defs>
<clipPath id="clip0_36757_64374">
<path d="M0 16C0 7.16344 7.16344 0 16 0H204C212.837 0 220 7.16344 220 16V218C220 226.837 212.837 234 204 234H16C7.16344 234 0 226.837 0 218V16Z" fill="white"/>
</clipPath>
</defs>
</svg>
