<svg width="220" height="234" viewBox="0 0 220 234" fill="none" xmlns="http://www.w3.org/2000/svg">
<path d="M204.348 224.25C204.348 218.865 199.982 214.5 194.598 214.5H130.975V217.144H133.288V231.356H130.975V234H194.598C199.982 234 204.348 229.635 204.348 224.25Z" fill="#FFDC5E"/>
<path d="M201.042 224.25C201.042 220.325 197.861 217.144 193.937 217.144H133.288V231.356H193.937C197.861 231.356 201.042 228.174 201.042 224.25Z" fill="#F5F5F5"/>
<path d="M181.542 223.258C181.725 223.258 181.873 223.406 181.873 223.589C181.873 223.771 181.725 223.919 181.542 223.919H156.589C156.407 223.919 156.259 223.771 156.259 223.589C156.259 223.406 156.407 223.258 156.589 223.258H181.542Z" fill="#E6E6E6"/>
<path d="M172.453 220.119L172.487 220.12C172.654 220.137 172.784 220.278 172.784 220.449C172.784 220.62 172.654 220.761 172.487 220.778L172.453 220.78H155.267C155.084 220.78 154.937 220.632 154.937 220.449C154.937 220.267 155.084 220.119 155.267 220.119H172.453Z" fill="#E6E6E6"/>
<path d="M143.203 226.729C143.386 226.729 143.534 226.877 143.534 227.059C143.534 227.242 143.386 227.39 143.203 227.39H137.585C137.402 227.39 137.254 227.242 137.254 227.059C137.254 226.877 137.402 226.729 137.585 226.729H143.203Z" fill="#E6E6E6"/>
<path d="M128 204.75C128 199.365 132.365 195 137.75 195H201.373V197.644H199.059V211.856H201.373V214.5H137.75C132.365 214.5 128 210.135 128 204.75Z" fill="#58C6FF"/>
<path d="M131.305 204.75C131.305 200.825 134.487 197.644 138.411 197.644H199.059V211.856H138.411C134.487 211.856 131.305 208.674 131.305 204.75Z" fill="#F5F5F5"/>
<path d="M150.805 203.758C150.623 203.758 150.475 203.906 150.475 204.089C150.475 204.271 150.623 204.419 150.805 204.419H175.759C175.941 204.419 176.089 204.271 176.089 204.089C176.089 203.906 175.941 203.758 175.759 203.758H150.805Z" fill="#E6E6E6"/>
<path d="M159.894 200.619L159.86 200.62C159.693 200.637 159.563 200.778 159.563 200.949C159.563 201.12 159.693 201.261 159.86 201.278L159.894 201.28H177.08C177.263 201.28 177.411 201.132 177.411 200.949C177.411 200.767 177.263 200.619 177.08 200.619H159.894Z" fill="#E6E6E6"/>
<path d="M189.144 207.229C188.962 207.229 188.814 207.377 188.814 207.559C188.814 207.742 188.962 207.89 189.144 207.89H194.763C194.945 207.89 195.093 207.742 195.093 207.559C195.093 207.377 194.945 207.229 194.763 207.229H189.144Z" fill="#E6E6E6"/>
</svg>
