<svg xmlns="http://www.w3.org/2000/svg" width="104" height="104" viewBox="0 0 104 104" fill="none">
<rect x="0.5" y="0.5" width="103" height="103" rx="7.5" fill="#E1E1E1" stroke="#C6C6C6" stroke-dasharray="3 3"/>
<path d="M12.0039 60.7935C15.8212 55.5121 25.9701 52.0129 30.5675 50.9234C39.98 50.0955 61.6157 48.5572 72.8585 49.0279C86.9119 49.6162 92.0757 54.78 92.2064 58.5058C92.3371 62.2315 87.6309 66.4803 76.0613 66.4149C64.4918 66.3495 58.2167 69.487 55.4714 71.0558C52.7261 72.6245 44.1633 76.1542 36.3196 76.0235C28.4758 75.8928 17.4945 72.4938 14.8146 71.5133C12.1346 70.5329 7.23224 67.3954 12.0039 60.7935Z" fill="#CCCCCC"/>
<path d="M28.1489 53.6689C25.0114 57.5385 23.4862 60.2925 23.1158 61.1858C27.09 61.761 60.6787 61.8177 76.9763 61.7741C77.3249 60.9026 77.9045 58.7281 77.4339 57.0025C76.8456 54.8454 74.6886 49.2894 74.6232 47.59C74.5578 45.8905 75.4076 42.6222 75.4076 41.0535C75.4076 39.4847 74.6232 38.5043 74.2964 37.3931C73.9696 36.2819 74.2964 35.3014 74.1003 34.9092C72.4662 31.9024 73.8388 31.0527 72.6623 30.922C69.5247 30.4644 67.1716 31.4449 64.4263 30.922C61.681 30.399 57.8245 30.0722 54.8177 30.7912C51.8109 31.5102 52.0724 30.7912 49.2617 31.5756C46.451 32.36 45.9934 33.7326 44.6208 33.7326C42.5291 33.9941 40.895 34.6477 38.9341 36.1511C36.9731 37.6545 34.0971 44.5832 33.2473 46.5441C32.3976 48.5051 30.4366 49.028 29.9791 50.2046C29.5215 51.3811 29.7176 52.0348 28.1489 53.6689Z" fill="#AFAFAF"/>
<path d="M39.7184 37.1317C40.3502 37.3931 42.3983 37.6284 45.5358 36.478C49.4577 35.04 55.1445 34.8439 58.8049 35.4322C62.4653 36.0205 64.557 36.7395 68.4789 35.8897C72.4008 35.04 72.5968 36.0204 74.1002 34.9092" stroke="#D3D2D4" stroke-width="0.130729" stroke-linecap="round"/>
<path d="M68.4791 35.8896C64.5572 36.7394 62.4655 36.0204 58.8051 35.4321C55.3434 34.8757 50.0693 35.0209 46.1897 36.2546C46.2115 35.61 46.7518 34.2032 48.7389 33.7326C51.2228 33.1443 52.8569 33.275 53.9681 33.3404C55.0793 33.4058 56.5173 33.2097 58.0861 33.1443C59.6548 33.0789 61.5504 33.0789 62.9231 32.8175C64.2957 32.556 67.9562 33.6001 69.1327 35.758C68.927 35.7961 68.7095 35.8397 68.4791 35.8896Z" fill="#B4B4B4"/>
<path opacity="0.5" d="M28.1489 53.5953C25.0114 57.4649 23.4862 60.219 23.1158 61.1123C27.09 61.6875 60.6787 61.7441 76.9763 61.7006C77.3249 60.829 77.9045 58.6546 77.4339 56.9289C76.8456 54.7719 74.6886 49.2159 74.6232 47.5164C74.6093 47.1551 74.6368 46.7229 74.6886 46.2511C73.9697 46.6433 72.4008 46.774 71.1589 45.9897C69.9169 45.2053 69.7862 44.9438 68.6096 44.9438C67.4331 44.9438 66.0604 46.2511 64.8185 45.5975C63.5766 44.9438 62.2039 44.4209 60.7005 44.6824C59.1971 44.9438 56.844 47.7545 55.0138 48.6042C53.1836 49.454 52.2685 49.5194 51.7455 48.016C51.2226 46.5126 51.4841 45.0746 50.2422 44.6824C49.0002 44.2902 48.8041 45.2053 47.5622 44.4209C46.3203 43.6365 45.2091 44.2902 43.2481 45.2053C41.2872 46.1204 40.5028 45.5321 40.176 44.6824C39.8492 43.8326 39.7838 43.1136 37.7575 44.0287C36.1364 44.7608 34.0753 45.9617 33.2473 46.4706C32.3976 48.4315 30.4366 48.9544 29.9791 50.131C29.5215 51.3076 29.7176 51.9612 28.1489 53.5953Z" fill="#B5B5B5"/>
</svg>