<svg width="220" height="234" viewBox="0 0 220 234" fill="none" xmlns="http://www.w3.org/2000/svg">
<g clip-path="url(#clip0_36802_3521)">
<g clip-path="url(#clip1_36802_3521)">
<path d="M110.172 112.033C78.0989 112.033 66.2298 137.398 64.3045 150.08C51.7333 145.324 24.5523 148.381 22.174 176.237C20.5432 211.024 43.4698 220.485 84.0026 213.365C89.48 211.174 71.0218 222.676 74.6909 236.37H147.54C152.237 218.842 131.937 211.32 138.229 213.365C160.138 220.485 202.248 215.304 198.171 176.237C194.909 144.984 168.498 142.833 155.701 145.664C153.888 134.453 142.246 112.033 110.172 112.033Z" fill="white"/>
<path d="M114.265 188.301C112.44 189.214 108.569 191.149 107.692 191.587" stroke="black" stroke-width="2.19096" stroke-linecap="round"/>
<ellipse cx="98.5087" cy="172.416" rx="5.4774" ry="9.31158" fill="#3C3D46"/>
<ellipse cx="121.514" cy="172.416" rx="5.4774" ry="9.31158" fill="#3C3D46"/>
</g>
</g>
<defs>
<clipPath id="clip0_36802_3521">
<path d="M0 16C0 7.16344 7.16344 0 16 0H204C212.837 0 220 7.16344 220 16V218C220 226.837 212.837 234 204 234H16C7.16344 234 0 226.837 0 218V16Z" fill="white"/>
</clipPath>
<clipPath id="clip1_36802_3521">
<rect width="180" height="124.918" fill="white" transform="translate(20 109.082)"/>
</clipPath>
</defs>
</svg>
