<svg width="20" height="20" viewBox="0 0 20 20" fill="none" xmlns="http://www.w3.org/2000/svg">
<mask id="path-1-outside-1_36802_5066" maskUnits="userSpaceOnUse" x="2" y="3" width="16" height="15" fill="black">
<rect fill="white" x="2" y="3" width="16" height="15"/>
<path d="M11.9844 4C14.7543 4 17 6.24574 17 9.01562C16.9998 11.7854 14.7542 14.0303 11.9844 14.0303H11.96L10 16.3711L8.04004 14.0303H8.01562C5.24584 14.0303 3.00016 11.7854 3 9.01562C3 6.24574 5.24574 4 8.01562 4H11.9844Z"/>
</mask>
<path d="M11.9844 4C14.7543 4 17 6.24574 17 9.01562C16.9998 11.7854 14.7542 14.0303 11.9844 14.0303H11.96L10 16.3711L8.04004 14.0303H8.01562C5.24584 14.0303 3.00016 11.7854 3 9.01562C3 6.24574 5.24574 4 8.01562 4H11.9844Z" fill="#C0C4CD"/>
<path d="M17 9.01562L17.6667 9.01566V9.01562H17ZM11.96 14.0303V13.3636H11.6487L11.4488 13.6023L11.96 14.0303ZM10 16.3711L9.48885 16.7991L10 17.4096L10.5111 16.7991L10 16.3711ZM8.04004 14.0303L8.55119 13.6023L8.35134 13.3636H8.04004V14.0303ZM3 9.01562H2.33333V9.01566L3 9.01562ZM11.9844 4V4.66667C14.3861 4.66667 16.3333 6.61393 16.3333 9.01562H17H17.6667C17.6667 5.87755 15.1224 3.33333 11.9844 3.33333V4ZM17 9.01562L16.3333 9.01559C16.3332 11.417 14.3861 13.3636 11.9844 13.3636V14.0303V14.6969C15.1222 14.6969 17.6665 12.1537 17.6667 9.01566L17 9.01562ZM11.9844 14.0303V13.3636H11.96V14.0303V14.6969H11.9844V14.0303ZM11.96 14.0303L11.4488 13.6023L9.48885 15.9431L10 16.3711L10.5111 16.7991L12.4711 14.4583L11.96 14.0303ZM10 16.3711L10.5111 15.9431L8.55119 13.6023L8.04004 14.0303L7.52889 14.4583L9.48885 16.7991L10 16.3711ZM8.04004 14.0303V13.3636H8.01562V14.0303V14.6969H8.04004V14.0303ZM8.01562 14.0303V13.3636C5.6139 13.3636 3.66681 11.417 3.66667 9.01559L3 9.01562L2.33333 9.01566C2.33352 12.1537 4.87778 14.6969 8.01562 14.6969V14.0303ZM3 9.01562H3.66667C3.66667 6.61393 5.61393 4.66667 8.01562 4.66667V4V3.33333C4.87755 3.33333 2.33333 5.87755 2.33333 9.01562H3ZM8.01562 4V4.66667H11.9844V4V3.33333H8.01562V4Z" fill="white" mask="url(#path-1-outside-1_36802_5066)"/>
<path d="M9.80979 5.58541C9.86966 5.40115 10.1303 5.40115 10.1902 5.58541L10.8532 7.62574C10.8799 7.70814 10.9567 7.76393 11.0434 7.76393H13.1887C13.3824 7.76393 13.463 8.01186 13.3062 8.12574L11.5706 9.38673C11.5005 9.43765 11.4712 9.52793 11.498 9.61033L12.1609 11.6507C12.2208 11.8349 12.0099 11.9881 11.8532 11.8743L10.1176 10.6133C10.0475 10.5623 9.95254 10.5623 9.88244 10.6133L8.14684 11.8743C7.9901 11.9881 7.7792 11.8349 7.83907 11.6507L8.50201 9.61033C8.52879 9.52793 8.49946 9.43765 8.42936 9.38673L6.69375 8.12574C6.53701 8.01185 6.61757 7.76393 6.81131 7.76393H8.95664C9.04328 7.76393 9.12007 7.70814 9.14685 7.62574L9.80979 5.58541Z" fill="#FAFFFB"/>
</svg>
